<?xml version="1.0" encoding="UTF-8" standalone="no"?>
<!-- Created with Inkscape (http://www.inkscape.org/) -->

<svg
        xmlns:inkscape="http://www.inkscape.org/namespaces/inkscape"
        xmlns:sodipodi="http://sodipodi.sourceforge.net/DTD/sodipodi-0.dtd"
        width="1122"
        height="1122"
        viewBox="0 0 296.86249 296.8625"
        version="1.1"
        id="svg1"
        xml:space="preserve"
        inkscape:version="1.3.2 (091e20e, 2023-11-25)"
        sodipodi:docname="Logo.svg"
        xmlns="http://www.w3.org/2000/svg"><sodipodi:namedview
     id="namedview1"
     pagecolor="#ffffff"
     bordercolor="#000000"
     borderopacity="0.25"
     inkscape:showpageshadow="2"
     inkscape:pageopacity="0.0"
     inkscape:pagecheckerboard="true"
     inkscape:deskcolor="#d1d1d1"
     inkscape:document-units="mm"
     inkscape:zoom="0.45746835"
     inkscape:cx="292.91644"
     inkscape:cy="665.61981"
     inkscape:window-width="1512"
     inkscape:window-height="916"
     inkscape:window-x="0"
     inkscape:window-y="38"
     inkscape:window-maximized="0"
     inkscape:current-layer="g2" />
    <defs
            id="defs1"/>
    <g
            inkscape:label="Ebene 1"
            inkscape:groupmode="layer"
            id="layer1"><g
       transform="matrix(0.03527778,0,0,-0.03527778,-233.79909,542.48998)"
       fill="#000000"
       stroke="none"
       id="g9"><g
         id="g2"
         transform="translate(6107.9741,7670.7346)"><g
           id="g3"
           transform="matrix(1.3278589,0,0,1.3278589,84.999892,-1144.7328)"><g
             id="g1"
             transform="translate(-3555.9752,-322.58359)"
             style="stroke:#ffffff;stroke-width:139.89;stroke-dasharray:none;stroke-opacity:1"><path
               d="m 7918.0753,6679.4627 c -10,-28 -72,-218 -76,-233 -2,-6 -37,-13 -82,-16 -53,-4 -94,-13 -126,-29 l -49,-24 -46,51 c -26,27 -67,71 -90,97 -24,26 -52,47 -61,47 -22,0 -221,-97 -221,-107 0,-4 16,-68 35,-140 19,-73 35,-135 35,-137 0,-2 -45,-43 -100,-91 l -100,-87 -43,17 c -80,33 -182,64 -207,64 -25,0 -78,-58 -110,-119 -7,-14 -24,-38 -36,-53 -13,-16 -24,-37 -24,-47 0,-11 43,-58 100,-111 55,-51 100,-99 100,-106 0,-7 -14,-42 -31,-76 -18,-34 -35,-84 -38,-112 l -6,-50 -60,-11 c -33,-7 -86,-15 -118,-19 -87,-10 -93,-20 -102,-160 -4,-65 -3,-121 2,-126 5,-5 51,-17 103,-28 52,-10 112,-26 132,-34 32,-14 37,-20 42,-59 3,-24 11,-89 19,-146 l 13,-103 -51,-42 c -27,-24 -74,-60 -102,-81 -29,-21 -53,-44 -53,-52 0,-8 9,-27 20,-42 11,-15 31,-54 44,-86 29,-71 51,-99 74,-92 9,2 68,19 131,36 l 113,32 33,-32 c 57,-55 79,-3 26,60 l -28,35 -64,-14 c -35,-7 -89,-22 -119,-33 -98,-36 -92,-37 -123,39 -15,37 -30,73 -33,78 -2,6 17,27 43,46 130,97 180,161 143,184 -5,3 -10,23 -10,43 0,20 -10,90 -22,155 l -23,117 -40,12 c -58,16 -63,17 -143,27 -40,5 -76,11 -79,14 -3,3 -1,48 3,99 l 9,93 135,25 c 148,28 147,27 149,108 1,36 56,162 71,162 5,0 12,9 15,20 7,21 -50,84 -164,181 l -55,47 59,81 c 59,83 67,88 107,72 13,-5 65,-21 116,-37 110,-33 98,-37 227,81 48,44 94,84 101,88 22,12 17,48 -22,168 -20,61 -32,115 -27,119 4,5 38,25 75,45 l 68,37 42,-48 c 113,-126 157,-167 175,-161 10,3 50,17 88,31 39,14 97,27 130,28 73,5 85,11 85,48 0,16 5,41 11,57 6,15 19,57 28,93 l 17,65 h 105 104 l 3,-35 c 2,-30 23,-148 37,-217 3,-12 15,-24 28,-28 12,-3 58,-17 102,-30 44,-14 107,-32 139,-42 l 59,-17 76,80 c 114,120 98,115 191,53 59,-39 79,-57 74,-69 -4,-8 -11,-28 -17,-45 -5,-16 -20,-57 -33,-90 -13,-33 -24,-66 -24,-73 0,-8 35,-48 78,-90 43,-43 91,-98 106,-124 15,-27 35,-48 43,-48 8,0 67,18 130,40 64,22 117,40 118,40 2,0 8,-15 15,-32 7,-18 27,-64 44,-102 29,-66 30,-70 12,-80 -34,-20 -171,-147 -178,-166 -4,-11 3,-35 17,-62 29,-55 49,-154 43,-212 -6,-51 -14,-46 137,-91 50,-15 93,-30 97,-34 8,-7 14,-169 7,-176 -2,-2 -47,-11 -99,-20 -149,-25 -149,-25 -164,-53 -7,-15 -23,-67 -36,-116 -24,-98 -37,-133 -58,-158 -10,-12 -11,-21 -2,-37 6,-12 14,-21 19,-21 13,0 171,-151 171,-164 0,-7 -23,-42 -52,-80 -51,-67 -52,-67 -91,-61 -21,4 -77,25 -124,46 -47,22 -89,39 -94,37 -5,-2 -61,-54 -125,-117 l -115,-114 6,-45.9999 c 6,-49 23,-145 31,-173 3,-11 -13,-27 -58,-54 -35,-21 -73,-44 -84,-51 -19,-12 -25,-11 -53,13 -17,14 -47,49 -65,77 -35,52 -79,87 -110,87 -9,0 -42,-9 -74,-19 -50,-17 -111,-28 -164,-30 -16,-1 -23,-17 -69,-181 -11,-41 -22,-80 -24,-85 -2,-8 -34,-8 -106,0 l -104,10 -23,85 c -12,47 -23,103 -23,125 -1,53 -13,65 -64,65 -53,0 -108,19 -186,65 -33,19 -68,35 -79,35 -16,0 -96,-76 -162,-154 -30,-35 -47,-33 -135,22 l -63,39 31,46 c 32,48 35,80 8,85 -17,3 -109,-124 -109,-151 0,-9 18,-28 39,-42 60,-37 192,-105 206,-105 7,0 54,45 104,100 l 93,100 43,-30 c 55,-38 119,-66 173,-75 47,-8 44,-1 68,-150 10,-60 21,-114 26,-119 4,-5 33,-9 65,-7 32,1 91,-3 132,-9 41,-6 82,-8 91,-5 12,4 28,45 55,136 42,143 39,140 128,153 27,4 68,16 92,26 l 44,19 24,-32 c 13,-18 32,-48 42,-67 23,-45 78,-98 110,-106 19,-5 45,5 108,43 45,27 96,55 114,62 17,7 34,19 36,26 3,7 -8,61 -24,121 -16,60 -28,116 -27,124.9999 2,9 46,55 98,102 l 94,86 36,-16 c 87,-38 133,-53 182,-59 l 53,-6 55,77 c 97,135 95,131 74,163 -21,32 -20,31 -103,116 -60,61 -63,67 -53,93 13,31 49,175 54,212 3,28 5,28 143,37 55,4 108,11 118,16 16,8 17,23 15,145 l -3,136 -115,37 -115,37 -7,70 c -4,39 -18,100 -32,136 l -24,65 63,57 c 34,31 76,65 93,75 42,26 43,54 5,130 -17,36 -37,87 -44,113 -21,86 -54,91 -216,36 -48,-16 -88,-29 -89,-29 -2,0 -17,20 -33,44 -17,24 -56,69 -87,100 l -58,57 18,52 c 10,29 27,76 38,105 27,70 16,93 -74,157 -117,82 -114,81 -157,51 -21,-15 -73,-59 -115,-98 l -78,-71 -76,28 c -42,15 -98,35 -124,43 -54,18 -55,20 -67,200 l -6,97 -148,2 c -144,2 -148,1 -156,-20 z"
               id="path1-3"
               style="stroke:#ffffff;stroke-width:139.89;stroke-dasharray:none;stroke-opacity:1" /><path
            d="m 7842.0753,6291.4627 c -520,-74 -914,-493 -965,-1025 -25,-270 49,-548 200,-748 40,-53 62,-71 74,-59 12,12 6,34 -21,76 -14,23 -48,85 -74,138 -268,543 -55,1190 481,1459 373,188 830,127 1138,-152 251,-228 378,-524 365,-855 -8,-218 -81,-426 -208,-599 -248,-335 -645,-489.9999 -1046,-408 -120,24 -276,87 -377,151 -57,37 -87,40 -87,8 0,-37 154,-135 296,-187.9999 270,-102 622,-72 887,74.9999 255,140 432,351 530,630 104,295 81,619 -66,902 -159,309 -438,517 -784,587 -69,14 -267,18 -343,8 z"
            id="path2-7"
            style="stroke:#ffffff;stroke-width:139.89;stroke-dasharray:none;stroke-opacity:1"/><path
            d="m 8065.0753,6087.4627 c -3,-3 -39,-7 -80,-9 -118,-4 -188,-53 -188,-131 0,-66 63,-431 86,-490 5,-14 4,-17 -4,-10 -21,19 -70,191 -81,280 -19,161 -81,244 -174,231 -70,-9 -87,-14 -130,-40 -65,-39 -95,-69 -118,-121 -39,-88 -27,-105 194,-294 48,-41 87,-76 87,-79 0,-9 -57,33 -147,109 -97,82 -146,112 -201,122 -43,9 -76,-9 -130,-67 -41,-44 -46,-56 -43,-84 1,-8 -5,-23 -15,-33 -32,-36 -55,-224 -32,-268 26,-49 112,-77 233,-75 62,0 237,14 270,20 17,4 27,3 23,-1 -13,-14 -214,-45 -342,-53 l -129,-8 -30,-34 c -29,-32 -29,-36 -24,-104 10,-118 39,-185 114,-266 86,-93 95,-92 192,4 123,123 77,110 -72,-21 -27,-23 -30,-24 -48,-8 -28,26 -106,192 -119,255 -7,30 -10,75 -8,100 l 3,45 135,1 c 104,0 166,7 270,28 261,52 252,51 276,20 21,-26 22,-26 33,-7 8,15 7,25 -3,39 -12,16 -11,22 5,43 20,25 24,57 10,79 -5,8 1,23 18,42 l 26,28 27,-25 c 32,-31 85,-34 105,-7 12,16 13,14 13,-17 0,-56 14,-61 80,-28 33,16 61,29 64,29 15,0 450,222 480,245 46,35 76,84 76,124 0,24 -15,48 -70,111 -78,88 -142,137 -204,155 -84,25 -124,-7 -190,-149 -33,-73 -165,-306 -172,-306 -6,0 10,35 48,107 21,39 52,109 69,155 17,45 39,97 50,115 25,39 27,118 6,160 -11,21 -34,38 -76,57 -60,27 -150,44 -163,31 z m 37,-69 c 180,-49 197,-67 150,-167 -13,-30 -25,-60 -25,-66 0,-35 -188,-444 -209,-458 -17,-10 -47,12 -59,42 -17,43 -52,184 -52,209 0,13 -13,91 -30,174 -16,83 -30,165 -30,183 1,39 26,71 71,91 48,21 82,19 184,-8 z m -423,-123 c 47,-50 50,-58 87,-193 17,-63 47,-162 66,-219 36,-106 42,-141 25,-141 -11,0 -133,90 -180,133 -19,18 -70,58 -112,90 -101,76 -138,126 -138,187 0,37 5,51 28,72 44,43 145,108 167,108 12,0 37,-17 57,-37 z m 835,-35 c 83,-36 173,-111 173,-145 0,-13 7,-37 15,-54 15,-28 15,-31 -12,-69 -32,-44 -126,-103 -338,-210 -165,-83 -242,-114 -250,-100 -7,12 91,202 154,299 22,35 41,57 41,48 0,-26 15,-20 52,21 39,44 75,129 60,144 -6,6 -21,-6 -42,-36 -19,-25 -35,-46 -36,-46 -7,0 41,99 63,128 27,35 68,42 120,20 z m -1175,-264 c 24,-10 75,-43 114,-74 58,-47 228,-163 356,-243 25,-15 47,-71 34,-84 -3,-4 -41,-8 -83,-10 -43,-1 -139,-8 -213,-14 -111,-9 -157,-8 -257,5 -67,8 -131,21 -142,28 -12,7 -24,31 -31,61 -13,64 9,145 51,184 20,19 28,35 25,48 -7,29 34,98 64,106 37,10 36,10 82,-7 z m 769,-191 c -11,-21 -20,-35 -21,-31 0,12 33,78 38,74 2,-2 -6,-21 -17,-43 z"
            id="path3-9"
            style="stroke:#ffffff;stroke-width:139.89;stroke-dasharray:none;stroke-opacity:1"/><path
            d="m 7633.0753,5883.4627 c -11,-18 57,-151 77,-151 10,0 9,64 -2,92 -10,26 -47,68 -61,68 -5,0 -11,-4 -14,-9 z"
            id="path4-0"
            style="stroke:#ffffff;stroke-width:139.89;stroke-dasharray:none;stroke-opacity:1"/><path
            d="m 8388.0753,5683.4627 c -6,-10 -7,-21 -4,-25 9,-8 33,14 33,30 0,20 -18,17 -29,-5 z"
            id="path5-2"
            style="stroke:#ffffff;stroke-width:139.89;stroke-dasharray:none;stroke-opacity:1"/><path
            d="m 8695.0753,5497.4627 c -93,-50 -265,-135 -378,-186 -41,-19 -96,-46 -121,-61 -70,-42 -84,-96 -25,-99 13,0 8,-5 -14,-11 -52,-14 -80,-45 -80,-86 0,-26 -3,-32 -12,-25 -7,6 -25,13 -39,17 -48,11 -54,-12 -64,-213 -8,-168 -18,-150 -14,24 4,142 3,150 -15,150 -21,0 -19,26 -34,-310 -12,-241 -28,-374 -46,-381 -29,-11 -108,-10 -154,2 -92,24 -222,104 -222,138 0,6 40,56 89,111 49,55 88,101 86,103 -9,10 -88,-44 -117,-79 -18,-23 -47,-55 -65,-72 -59,-55 -51,-116 24,-175 71,-55 215,-103 295,-97 18,2 43,3 55,4 32,2 63,39 63,77 0,18 7,59 15,91 8,31 16,73 16,93 1,25 3,28 5,10 27,-180 38,-210 97,-254 34,-25 156,-35 211,-16 56,18 174,90 201,122 42,50 42,88 0,165 -52,97 -199,287 -268,347 -32,28 -65,62 -74,76 -42,64 119,-96 186,-185 87,-115 223,-260 263,-281 52,-27 77,-19 140,49 80,84 146,178 168,235 14,39 19,106 11,173 -3,20 -72,72 -111,83 l -45,13 62,-1 c 109,-2 136,37 137,204 0,64 -5,102 -23,153 -23,70 -75,137 -104,137 -9,0 -54,-20 -99,-45 z m 143,-92 c 19,-45 49,-176 49,-217 0,-14 -14,-40 -35,-62 -35,-37 -35,-37 -98,-31 -66,7 -224,45 -296,72 -28,10 -81,17 -143,18 -57,1 -98,6 -98,12 -1,12 84,58 185,100 88,37 254,122 320,163 l 50,31 24,-22 c 13,-12 32,-41 42,-64 z m -370,-287 c 41,-13 91,-27 112,-31 21,-4 36,-10 33,-12 -2,-3 -65,6 -138,20 -73,14 -155,30 -183,35 l -50,10 76,1 c 56,1 96,-5 150,-23 z m -136,-51 c 77,-14 206,-36 287,-50 147,-24 192,-39 218,-70 12,-14 11,-25 -4,-73 -10,-31 -22,-68 -26,-82 -21,-71 -170,-260 -205,-260 -31,0 -104,73 -242,245 -49,60 -114,129 -145,152 -73,56 -105,105 -89,139 14,31 28,30 206,-1 z m 322,-1 c -3,-3 -12,-4 -19,-1 -8,3 -5,6 6,6 11,1 17,-2 13,-5 z m 40,-10 c -3,-3 -12,-4 -19,-1 -8,3 -5,6 6,6 11,1 17,-2 13,-5 z m -614,-106 c 20,-24 79,-88 131,-143 61,-63 106,-120 123,-155 14,-30 43,-80 64,-111 51,-76 56,-100 30,-143 -24,-38 -38,-44 -173,-76 -177,-42 -217,-20 -238,127 -15,107 -16,185 -2,368 6,77 11,148 12,158 0,27 15,20 53,-25 z"
            id="path6-3"
            style="stroke:#ffffff;stroke-width:139.89;stroke-dasharray:none;stroke-opacity:1"/><path
            d="m 8437.0753,4713.4627 c 0,-11 28,-41 39,-41 18,0 20,15 4,32 -17,19 -43,24 -43,9 z"
            id="path7-9"
            style="stroke:#ffffff;stroke-width:139.89;stroke-dasharray:none;stroke-opacity:1"/><path
            d="m 8503.0753,4663.4627 c -14,-22 88,-97 112,-82 20,12 5,34 -42,64 -45,28 -61,33 -70,18 z"
            id="path8-9"
            style="stroke:#ffffff;stroke-width:139.89;stroke-dasharray:none;stroke-opacity:1"/><path
            d="m 4581.0753,5138.4627 c -13,-34 81,-169 216,-311 65,-67 418,-487 489,-580 72,-95 487,-590.9999 569,-679.9999 181,-196 227,-276 252,-438 22,-139 31,-1513 12,-1687 -16,-135 -50,-327 -63,-352 -31,-59 -146,-73 -595,-73 -353,0 -373,-1 -393,-19.00005 -12,-11 -18,-23 -14,-27 23,-22 316,-37 580,-30 219,6 904,6 1433,0 327,-3 335,-3 382,39 10,8 18,24.00005 18,34.00005 0,18 -14,19 -457,14 -252,-3 -492,-1 -533,4 -136,16 -136,17 -154,60 -41,102 -73,282 -90,500 -21,260 0,850 49,1365 2,28 7,84 11,125 8,86 39,187 77,247 35,56 264,330 392,469 5,6 26,29 45,50 139,154 265,290.9999 329,358.9999 42,44 109,116 150,160 41,44 108,116 150,160 42,44 135,143 206,220 194,210 234,253 303,325 34,37 62,70 62,73 0,44 -201,-114 -550,-433 -47,-43 -98,-90 -115,-105 -76,-70 -262,-250 -505,-489 -527,-519.9999 -599,-564.9999 -756,-485.9999 -65,33 -136,98 -294,270 -207,226.9999 -524,561.9999 -781,824.9999 -217,223 -333,345 -337,353 -1,4 19,8 45,8 44,1 161,7 363,19 41,2 156,7 255,10 187,6 219,10 210,26 -4,5 -200,9 -481,9 -395,0 -476,-2 -480,-14 z m 557,-611 c 35,-39 123,-136 194,-215 262,-290.9999 461,-507.9999 559,-607.9999 117,-119 172,-152 270,-159 147,-12 180,12 790,601.9999 137,132 265,255 285,274 20,18 79,74 131,125 53,50 116,109 140,131 l 45,40 -40,-44 c -57,-64 -314,-333 -606,-635.9999 -200,-208 -361,-382 -528,-570 -58,-64 -99,-132 -115,-189 -30,-103 -47,-289 -61,-686 -9,-256 -17,-411 -22,-407 -2,2 -4,213 -4,468 -1,480 -8,596 -39,664 -15,33 -368,456 -509,610 -20,22 -130,150 -246,284.9999 -115,135 -255,297 -309,360 -55,63 -109,126 -120,140 -27,34 105,-99 185,-185 z m 1053,-3096.9999 c 7,-87 40,-325 52,-364 7,-28 -13,-35 -71,-27 -36,4 -44,9 -41,22 7,23 24,155 30,231 3,36 8,102 12,148 4,45 8,81 9,80 1,-2 5,-42 9,-90 z"
            id="path9-7"
            style="stroke:#ffffff;stroke-width:139.89;stroke-dasharray:none;stroke-opacity:1"/></g><path
            d="m 4361,6357 c -10,-28 -72,-218 -76,-233 -2,-6 -37,-13 -82,-16 -53,-4 -94,-13 -126,-29 l -49,-24 -46,51 c -26,27 -67,71 -90,97 -24,26 -52,47 -61,47 -22,0 -221,-97 -221,-107 0,-4 16,-68 35,-140 19,-73 35,-135 35,-137 0,-2 -45,-43 -100,-91 l -100,-87 -43,17 c -80,33 -182,64 -207,64 -25,0 -78,-58 -110,-119 -7,-14 -24,-38 -36,-53 -13,-16 -24,-37 -24,-47 0,-11 43,-58 100,-111 55,-51 100,-99 100,-106 0,-7 -14,-42 -31,-76 -18,-34 -35,-84 -38,-112 l -6,-50 -60,-11 c -33,-7 -86,-15 -118,-19 -87,-10 -93,-20 -102,-160 -4,-65 -3,-121 2,-126 5,-5 51,-17 103,-28 52,-10 112,-26 132,-34 32,-14 37,-20 42,-59 3,-24 11,-89 19,-146 l 13,-103 -51,-42 c -27,-24 -74,-60 -102,-81 -29,-21 -53,-44 -53,-52 0,-8 9,-27 20,-42 11,-15 31,-54 44,-86 29,-71 51,-99 74,-92 9,2 68,19 131,36 l 113,32 33,-32 c 57,-55 79,-3 26,60 l -28,35 -64,-14 c -35,-7 -89,-22 -119,-33 -98,-36 -92,-37 -123,39 -15,37 -30,73 -33,78 -2,6 17,27 43,46 130,97 180,161 143,184 -5,3 -10,23 -10,43 0,20 -10,90 -22,155 l -23,117 -40,12 c -58,16 -63,17 -143,27 -40,5 -76,11 -79,14 -3,3 -1,48 3,99 l 9,93 135,25 c 148,28 147,27 149,108 1,36 56,162 71,162 5,0 12,9 15,20 7,21 -50,84 -164,181 l -55,47 59,81 c 59,83 67,88 107,72 13,-5 65,-21 116,-37 110,-33 98,-37 227,81 48,44 94,84 101,88 22,12 17,48 -22,168 -20,61 -32,115 -27,119 4,5 38,25 75,45 l 68,37 42,-48 c 113,-126 157,-167 175,-161 10,3 50,17 88,31 39,14 97,27 130,28 73,5 85,11 85,48 0,16 5,41 11,57 6,15 19,57 28,93 l 17,65 h 105 104 l 3,-35 c 2,-30 23,-148 37,-217 3,-12 15,-24 28,-28 12,-3 58,-17 102,-30 44,-14 107,-32 139,-42 l 59,-17 76,80 c 114,120 98,115 191,53 59,-39 79,-57 74,-69 -4,-8 -11,-28 -17,-45 -5,-16 -20,-57 -33,-90 -13,-33 -24,-66 -24,-73 0,-8 35,-48 78,-90 43,-43 91,-98 106,-124 15,-27 35,-48 43,-48 8,0 67,18 130,40 64,22 117,40 118,40 2,0 8,-15 15,-32 7,-18 27,-64 44,-102 29,-66 30,-70 12,-80 -34,-20 -171,-147 -178,-166 -4,-11 3,-35 17,-62 29,-55 49,-154 43,-212 -6,-51 -14,-46 137,-91 50,-15 93,-30 97,-34 8,-7 14,-169 7,-176 -2,-2 -47,-11 -99,-20 -149,-25 -149,-25 -164,-53 -7,-15 -23,-67 -36,-116 -24,-98 -37,-133 -58,-158 -10,-12 -11,-21 -2,-37 6,-12 14,-21 19,-21 13,0 171,-151 171,-164 0,-7 -23,-42 -52,-80 -51,-67 -52,-67 -91,-61 -21,4 -77,25 -124,46 -47,22 -89,39 -94,37 -5,-2 -61,-54 -125,-117 l -115,-114 6,-46 c 6,-49 23,-145 31,-173 3,-11 -13,-27 -58,-54 -35,-21 -73,-44 -84,-51 -19,-12 -25,-11 -53,13 -17,14 -47,49 -65,77 -35,52 -79,87 -110,87 -9,0 -42,-9 -74,-19 -50,-17 -111,-28 -164,-30 -16,-1 -23,-17 -69,-181 -11,-41 -22,-80 -24,-85 -2,-8 -34,-8 -106,0 l -104,10 -23,85 c -12,47 -23,103 -23,125 -1,53 -13,65 -64,65 -53,0 -108,19 -186,65 -33,19 -68,35 -79,35 -16,0 -96,-76 -162,-154 -30,-35 -47,-33 -135,22 l -63,39 31,46 c 32,48 35,80 8,85 -17,3 -109,-124 -109,-151 0,-9 18,-28 39,-42 60,-37 192,-105 206,-105 7,0 54,45 104,100 l 93,100 43,-30 c 55,-38 119,-66 173,-75 47,-8 44,-1 68,-150 10,-60 21,-114 26,-119 4,-5 33,-9 65,-7 32,1 91,-3 132,-9 41,-6 82,-8 91,-5 12,4 28,45 55,136 42,143 39,140 128,153 27,4 68,16 92,26 l 44,19 24,-32 c 13,-18 32,-48 42,-67 23,-45 78,-98 110,-106 19,-5 45,5 108,43 45,27 96,55 114,62 17,7 34,19 36,26 3,7 -8,61 -24,121 -16,60 -28,116 -27,125 2,9 46,55 98,102 l 94,86 36,-16 c 87,-38 133,-53 182,-59 l 53,-6 55,77 c 97,135 95,131 74,163 -21,32 -20,31 -103,116 -60,61 -63,67 -53,93 13,31 49,175 54,212 3,28 5,28 143,37 55,4 108,11 118,16 16,8 17,23 15,145 l -3,136 -115,37 -115,37 -7,70 c -4,39 -18,100 -32,136 l -24,65 63,57 c 34,31 76,65 93,75 42,26 43,54 5,130 -17,36 -37,87 -44,113 -21,86 -54,91 -216,36 -48,-16 -88,-29 -89,-29 -2,0 -17,20 -33,44 -17,24 -56,69 -87,100 l -58,57 18,52 c 10,29 27,76 38,105 27,70 16,93 -74,157 -117,82 -114,81 -157,51 -21,-15 -73,-59 -115,-98 l -78,-71 -76,28 c -42,15 -98,35 -124,43 -54,18 -55,20 -67,200 l -6,97 -148,2 c -144,2 -148,1 -156,-20 z"
            id="path1"/><path
            d="m 4285,5969 c -520,-74 -914,-493 -965,-1025 -25,-270 49,-548 200,-748 40,-53 62,-71 74,-59 12,12 6,34 -21,76 -14,23 -48,85 -74,138 -268,543 -55,1190 481,1459 373,188 830,127 1138,-152 251,-228 378,-524 365,-855 -8,-218 -81,-426 -208,-599 -248,-335 -645,-490 -1046,-408 -120,24 -276,87 -377,151 -57,37 -87,40 -87,8 0,-37 154,-135 296,-188 270,-102 622,-72 887,75 255,140 432,351 530,630 104,295 81,619 -66,902 -159,309 -438,517 -784,587 -69,14 -267,18 -343,8 z"
            id="path2"/><path
            d="m 4508,5765 c -3,-3 -39,-7 -80,-9 -118,-4 -188,-53 -188,-131 0,-66 63,-431 86,-490 5,-14 4,-17 -4,-10 -21,19 -70,191 -81,280 -19,161 -81,244 -174,231 -70,-9 -87,-14 -130,-40 -65,-39 -95,-69 -118,-121 -39,-88 -27,-105 194,-294 48,-41 87,-76 87,-79 0,-9 -57,33 -147,109 -97,82 -146,112 -201,122 -43,9 -76,-9 -130,-67 -41,-44 -46,-56 -43,-84 1,-8 -5,-23 -15,-33 -32,-36 -55,-224 -32,-268 26,-49 112,-77 233,-75 62,0 237,14 270,20 17,4 27,3 23,-1 -13,-14 -214,-45 -342,-53 l -129,-8 -30,-34 c -29,-32 -29,-36 -24,-104 10,-118 39,-185 114,-266 86,-93 95,-92 192,4 123,123 77,110 -72,-21 -27,-23 -30,-24 -48,-8 -28,26 -106,192 -119,255 -7,30 -10,75 -8,100 l 3,45 135,1 c 104,0 166,7 270,28 261,52 252,51 276,20 21,-26 22,-26 33,-7 8,15 7,25 -3,39 -12,16 -11,22 5,43 20,25 24,57 10,79 -5,8 1,23 18,42 l 26,28 27,-25 c 32,-31 85,-34 105,-7 12,16 13,14 13,-17 0,-56 14,-61 80,-28 33,16 61,29 64,29 15,0 450,222 480,245 46,35 76,84 76,124 0,24 -15,48 -70,111 -78,88 -142,137 -204,155 -84,25 -124,-7 -190,-149 -33,-73 -165,-306 -172,-306 -6,0 10,35 48,107 21,39 52,109 69,155 17,45 39,97 50,115 25,39 27,118 6,160 -11,21 -34,38 -76,57 -60,27 -150,44 -163,31 z m 37,-69 c 180,-49 197,-67 150,-167 -13,-30 -25,-60 -25,-66 0,-35 -188,-444 -209,-458 -17,-10 -47,12 -59,42 -17,43 -52,184 -52,209 0,13 -13,91 -30,174 -16,83 -30,165 -30,183 1,39 26,71 71,91 48,21 82,19 184,-8 z m -423,-123 c 47,-50 50,-58 87,-193 17,-63 47,-162 66,-219 36,-106 42,-141 25,-141 -11,0 -133,90 -180,133 -19,18 -70,58 -112,90 -101,76 -138,126 -138,187 0,37 5,51 28,72 44,43 145,108 167,108 12,0 37,-17 57,-37 z m 835,-35 c 83,-36 173,-111 173,-145 0,-13 7,-37 15,-54 15,-28 15,-31 -12,-69 -32,-44 -126,-103 -338,-210 -165,-83 -242,-114 -250,-100 -7,12 91,202 154,299 22,35 41,57 41,48 0,-26 15,-20 52,21 39,44 75,129 60,144 -6,6 -21,-6 -42,-36 -19,-25 -35,-46 -36,-46 -7,0 41,99 63,128 27,35 68,42 120,20 z M 3782,5274 c 24,-10 75,-43 114,-74 58,-47 228,-163 356,-243 25,-15 47,-71 34,-84 -3,-4 -41,-8 -83,-10 -43,-1 -139,-8 -213,-14 -111,-9 -157,-8 -257,5 -67,8 -131,21 -142,28 -12,7 -24,31 -31,61 -13,64 9,145 51,184 20,19 28,35 25,48 -7,29 34,98 64,106 37,10 36,10 82,-7 z m 769,-191 c -11,-21 -20,-35 -21,-31 0,12 33,78 38,74 2,-2 -6,-21 -17,-43 z"
            id="path3"/><path
            d="m 4076,5561 c -11,-18 57,-151 77,-151 10,0 9,64 -2,92 -10,26 -47,68 -61,68 -5,0 -11,-4 -14,-9 z"
            id="path4"/><path
            d="m 4831,5361 c -6,-10 -7,-21 -4,-25 9,-8 33,14 33,30 0,20 -18,17 -29,-5 z"
            id="path5"/><path
            d="m 5138,5175 c -93,-50 -265,-135 -378,-186 -41,-19 -96,-46 -121,-61 -70,-42 -84,-96 -25,-99 13,0 8,-5 -14,-11 -52,-14 -80,-45 -80,-86 0,-26 -3,-32 -12,-25 -7,6 -25,13 -39,17 -48,11 -54,-12 -64,-213 -8,-168 -18,-150 -14,24 4,142 3,150 -15,150 -21,0 -19,26 -34,-310 -12,-241 -28,-374 -46,-381 -29,-11 -108,-10 -154,2 -92,24 -222,104 -222,138 0,6 40,56 89,111 49,55 88,101 86,103 -9,10 -88,-44 -117,-79 -18,-23 -47,-55 -65,-72 -59,-55 -51,-116 24,-175 71,-55 215,-103 295,-97 18,2 43,3 55,4 32,2 63,39 63,77 0,18 7,59 15,91 8,31 16,73 16,93 1,25 3,28 5,10 27,-180 38,-210 97,-254 34,-25 156,-35 211,-16 56,18 174,90 201,122 42,50 42,88 0,165 -52,97 -199,287 -268,347 -32,28 -65,62 -74,76 -42,64 119,-96 186,-185 87,-115 223,-260 263,-281 52,-27 77,-19 140,49 80,84 146,178 168,235 14,39 19,106 11,173 -3,20 -72,72 -111,83 l -45,13 62,-1 c 109,-2 136,37 137,204 0,64 -5,102 -23,153 -23,70 -75,137 -104,137 -9,0 -54,-20 -99,-45 z m 143,-92 c 19,-45 49,-176 49,-217 0,-14 -14,-40 -35,-62 -35,-37 -35,-37 -98,-31 -66,7 -224,45 -296,72 -28,10 -81,17 -143,18 -57,1 -98,6 -98,12 -1,12 84,58 185,100 88,37 254,122 320,163 l 50,31 24,-22 c 13,-12 32,-41 42,-64 z m -370,-287 c 41,-13 91,-27 112,-31 21,-4 36,-10 33,-12 -2,-3 -65,6 -138,20 -73,14 -155,30 -183,35 l -50,10 76,1 c 56,1 96,-5 150,-23 z m -136,-51 c 77,-14 206,-36 287,-50 147,-24 192,-39 218,-70 12,-14 11,-25 -4,-73 -10,-31 -22,-68 -26,-82 -21,-71 -170,-260 -205,-260 -31,0 -104,73 -242,245 -49,60 -114,129 -145,152 -73,56 -105,105 -89,139 14,31 28,30 206,-1 z m 322,-1 c -3,-3 -12,-4 -19,-1 -8,3 -5,6 6,6 11,1 17,-2 13,-5 z m 40,-10 c -3,-3 -12,-4 -19,-1 -8,3 -5,6 6,6 11,1 17,-2 13,-5 z m -614,-106 c 20,-24 79,-88 131,-143 61,-63 106,-120 123,-155 14,-30 43,-80 64,-111 51,-76 56,-100 30,-143 -24,-38 -38,-44 -173,-76 -177,-42 -217,-20 -238,127 -15,107 -16,185 -2,368 6,77 11,148 12,158 0,27 15,20 53,-25 z"
            id="path6"/><path
            d="m 4880,4391 c 0,-11 28,-41 39,-41 18,0 20,15 4,32 -17,19 -43,24 -43,9 z"
            id="path7"/><path
            d="m 4946,4341 c -14,-22 88,-97 112,-82 20,12 5,34 -42,64 -45,28 -61,33 -70,18 z"
            id="path8"/><path
            d="m 1024,4816 c -13,-34 81,-169 216,-311 65,-67 418,-487 489,-580 72,-95 487,-591 569,-680 181,-196 227,-276 252,-438 22,-139 31,-1513 12,-1687 -16,-135 -50,-327 -63,-352 -31,-59 -146,-73 -595,-73 -353,0 -373,-1 -393,-19 -12,-11 -18,-23 -14,-27 23,-22 316,-37 580,-30 219,6 904,6 1433,0 327,-3 335,-3 382,39 10,8 18,24 18,34 0,18 -14,19 -457,14 -252,-3 -492,-1 -533,4 -136,16 -136,17 -154,60 -41,102 -73,282 -90,500 -21,260 0,850 49,1365 2,28 7,84 11,125 8,86 39,187 77,247 35,56 264,330 392,469 5,6 26,29 45,50 139,154 265,291 329,359 42,44 109,116 150,160 41,44 108,116 150,160 42,44 135,143 206,220 194,210 234,253 303,325 34,37 62,70 62,73 0,44 -201,-114 -550,-433 -47,-43 -98,-90 -115,-105 -76,-70 -262,-250 -505,-489 -527,-520 -599,-565 -756,-486 -65,33 -136,98 -294,270 -207,227 -524,562 -781,825 -217,223 -333,345 -337,353 -1,4 19,8 45,8 44,1 161,7 363,19 41,2 156,7 255,10 187,6 219,10 210,26 -4,5 -200,9 -481,9 -395,0 -476,-2 -480,-14 z m 557,-611 c 35,-39 123,-136 194,-215 262,-291 461,-508 559,-608 117,-119 172,-152 270,-159 147,-12 180,12 790,602 137,132 265,255 285,274 20,18 79,74 131,125 53,50 116,109 140,131 l 45,40 -40,-44 c -57,-64 -314,-333 -606,-636 -200,-208 -361,-382 -528,-570 -58,-64 -99,-132 -115,-189 -30,-103 -47,-289 -61,-686 -9,-256 -17,-411 -22,-407 -2,2 -4,213 -4,468 -1,480 -8,596 -39,664 -15,33 -368,456 -509,610 -20,22 -130,150 -246,285 -115,135 -255,297 -309,360 -55,63 -109,126 -120,140 -27,34 105,-99 185,-185 z M 2634,1108 c 7,-87 40,-325 52,-364 7,-28 -13,-35 -71,-27 -36,4 -44,9 -41,22 7,23 24,155 30,231 3,36 8,102 12,148 4,45 8,81 9,80 1,-2 5,-42 9,-90 z"
            id="path9"/></g></g></g></g></svg>
